<svg id="Capa_1" data-name="Capa 1" xmlns="http://www.w3.org/2000/svg" viewBox="0 0 1576.8 1585.55"><defs><style>.cls-1{fill:#1d1d1b;}.cls-2{fill:#fefefe;}.cls-3{fill:#8dbf46;}.cls-4{fill:#2ba8e0;}.cls-5{fill:#9d1e63;}.cls-6{fill:#1e75ba;}.cls-7{fill:#f49223;}.cls-8{fill:#da1d5d;}</style></defs><ellipse class="cls-1" cx="788.4" cy="792.77" rx="788.4" ry="792.77"/><path class="cls-2" d="M-1073.18-940.48c0-41.83.08-83.65-.12-125.48,0-4.8,1.3-6.1,6-6.32,83.47-3.92,161.33-27,233-70q137.14-82.28,202.54-228.55c34.2-76.67,47.78-157.19,41.26-240.8-8.61-110.32-49.26-207.67-121.89-291.2C-780-1980.57-864-2032.42-963.52-2059.1a488,488,0,0,0-105-15.85c-3.71-.17-4.72-1.2-4.71-4.87q.15-127,0-254c0-4.78,2-4.86,5.67-4.75A758,758,0,0,1-824-2291a758.36,758.36,0,0,1,274,176.11q119.82,119.76,178.22,279.06c35.63,97.53,50.35,198.25,45.14,301.87a754.06,754.06,0,0,1-68.57,279.71,760.29,760.29,0,0,1-163.9,230.93A760.62,760.62,0,0,1-811.21-861a751.15,751.15,0,0,1-223.74,50.69c-10.63.75-21.31,1-31.93,1.86-4.91.4-6.48-.72-6.44-6.06C-1073.07-856.49-1073.18-898.49-1073.18-940.48Z" transform="translate(1878.7 2365.96)"/><path class="cls-3" d="M-1109.29-940q0,62,0,123.95c0,7.72,0,7.81-7.66,7.55A772.29,772.29,0,0,1-1246.79-824a758.45,758.45,0,0,1-199.77-71.38c-11.91-6.23-12-6.15-5.37-17.61q61.07-105.82,122-211.67c2.52-4.39,4.49-4.79,8.86-2.53A494.45,494.45,0,0,0-1165.79-1077a416.25,416.25,0,0,0,48.72,4.73c7.78.25,7.78.31,7.78,7.83Z" transform="translate(1878.7 2365.96)"/><path class="cls-4" d="M-1109.29-2206.71q0,62,0,123.94c0,7.51,0,7.63-7.64,8a497.84,497.84,0,0,0-114.56,19.13,482,482,0,0,0-89.39,35.72c-4.76,2.49-6.68,1.55-9.13-2.73q-35-61.12-70.31-122.08-26.85-46.51-53.74-93a30.17,30.17,0,0,0-2-3.45c-2.27-3-1.43-4.76,1.84-6.5,19.42-10.34,39.15-20,59.35-28.73a761.19,761.19,0,0,1,146.94-46.46,756.76,756.76,0,0,1,132.31-15.58c6.33-.18,6.35-.17,6.35,6.3Q-1109.28-2269.44-1109.29-2206.71Z" transform="translate(1878.7 2365.96)"/><path class="cls-5" d="M-1725.38-1591.49h-123.95c-7.58,0-7.18-.14-7.05-7.53.34-20.34,2.15-40.55,4.41-60.73,1.54-13.73,3.13-27.48,5.53-41.07a803.25,803.25,0,0,1,19.5-85.69,767.56,767.56,0,0,1,56.74-141.14c1.55-2.95,3.24-5.83,4.66-8.83s3.14-3.69,6.25-1.87c17.7,10.31,35.51,20.42,53.25,30.67q46.29,26.73,92.53,53.53,36.35,21,72.7,42c5.32,3.09,5.55,4,2.69,9.52-24,46.22-39.58,95.22-48.58,146.41-3.37,19.22-4.84,38.64-6.21,58.07-.46,6.49-.56,6.71-7,6.71Q-1662.65-1591.47-1725.38-1591.49Z" transform="translate(1878.7 2365.96)"/><path class="cls-6" d="M-1358.71-2000.23c0,2.35-1.82,2.9-3.16,3.79a555.29,555.29,0,0,0-52.64,38.82,506.67,506.67,0,0,0-89.58,98.31c-3.43,4.92-6.83,9.87-10,15-2,3.22-3.88,3.8-7.27,1.83q-39.29-22.89-78.71-45.53-47.6-27.48-95.19-54.94c-15.3-8.83-30.55-17.71-45.94-26.37-3.41-1.92-3.41-3.62-1.53-6.66a771.51,771.51,0,0,1,73.5-99.57,772.12,772.12,0,0,1,155.34-136.38c6.52-4.33,13.3-8.26,19.8-12.61,3.19-2.13,4.94-1.88,7,1.66,14.46,25.31,29.12,50.49,43.71,75.73q30.75,53.19,61.49,106.41,11,19,22,38.07C-1359.42-2001.83-1359-2000.91-1358.71-2000.23Z" transform="translate(1878.7 2365.96)"/><path class="cls-7" d="M-1490.27-920.35c-1.53-.87-2.85-1.56-4.11-2.34a767,767,0,0,1-113.78-86.19A778,778,0,0,1-1742-1169.76c-2.65-4.22-2.56-6.07,2-8.69q70.71-40.44,141.19-81.31c25.54-14.73,51.17-29.33,76.56-44.32,4.53-2.67,6.31-1.68,8.88,2.31a501.55,501.55,0,0,0,135.14,140.14c5.46,3.81,10.93,7.66,16.65,11.06,3.28,2,3.37,3.57,1.54,6.69q-21.2,36.23-42.11,72.64-41.61,72.06-83.22,144.12C-1486.75-924.77-1487.69-922-1490.27-920.35Z" transform="translate(1878.7 2365.96)"/><path class="cls-8" d="M-1724.73-1555.47h123c8.52,0,8.36,0,8.91,8.38,2.35,35.81,7.55,71.16,17.11,105.83a494.1,494.1,0,0,0,38.51,98.44c1.83,3.49,1.18,5.24-2.13,7.14q-78.4,45.08-156.71,90.32-29.87,17.23-59.65,34.6c-7.53,4.39-7.42,4.38-11.58-3.26a719.38,719.38,0,0,1-43.76-98,746.89,746.89,0,0,1-36-138.61A767.14,767.14,0,0,1-1856.5-1551c-.11-4.42,2.28-4.47,5.31-4.47h126.46Z" transform="translate(1878.7 2365.96)"/></svg>