<svg xmlns="http://www.w3.org/2000/svg" viewBox="0 0 32 32"><defs><style>.cls-1{fill:#fab30d;}</style></defs><g id="Capa_2" data-name="Capa 2"><g id="Capa_1-2" data-name="Capa 1"><path class="cls-1" d="M0,7.84c.06-.21,5-2.43,5-2.43L9.63,7.64l0,5.37-5,2.23,0-4.93Z"/><path class="cls-1" d="M10.92,2.43c.06-.21,5-2.43,5-2.43l4.62,2.23,0,5.37-5,2.23,0-4.93Z"/><path class="cls-1" d="M0,19.14c.06-.22,5-2.43,5-2.43l4.62,2.22,0,5.38-5,2.23,0-4.94Z"/><path class="cls-1" d="M11.32,13.51c.06-.21,5-2.42,5-2.42L21,13.31l0,5.38-5,2.22L16,16Z"/><path class="cls-1" d="M22.33,7.84c.06-.21,5-2.43,5-2.43L32,7.64,32,13l-5,2.23,0-4.93Z"/><path class="cls-1" d="M22.33,19.55c.06-.21,5-2.43,5-2.43L32,19.35l0,5.37L27,27,27,22Z"/><path class="cls-1" d="M10.68,24.6c.06-.21,5-2.43,5-2.43l4.62,2.23,0,5.37-5,2.23,0-4.93Z"/></g></g></svg>