<svg xmlns="http://www.w3.org/2000/svg" viewBox="0 0 733.38 502.1"><defs><style>.cls-1{fill:#fff;}</style></defs><g id="Capa_2" data-name="Capa 2"><g id="Capa_1-2" data-name="Capa 1"><path class="cls-1" d="M727.24,293.77C711.13,237.59,675,199.7,619.78,180.39c-3.75-1.31-5.68-2.81-6.09-7.26a221.13,221.13,0,0,0-4.53-30.29A185.26,185.26,0,0,0,404.3,1.65C347,9.09,302.72,37.93,271.55,86.34c-8.27,12.89-14.19,27.29-21.46,41.5.51,0,0,.11-.41,0-2.06-.56-4-1.16-6.14-1.8-31.32-9.79-62.2-8.61-91.75,5.75-44.63,21.71-68.47,58.08-72.95,107.43A10.06,10.06,0,0,1,75,246.39C41.84,263.92,18.8,290,6.89,325.61,4,334.35,2.27,343.49,0,352.43l0,30.05c1.74,7.33,3.09,14.78,5.24,22C20.49,458,70.47,502.36,139.47,502.1c141.2-.51,282.41,0,423.64-.36a194,194,0,0,0,45.23-5.13C697.76,474.68,752.39,381.36,727.24,293.77Z"/></g></g></svg>