<svg xmlns="http://www.w3.org/2000/svg" viewBox="0 0 592.26 628.62"><defs><style>.cls-1{fill:#fff;}</style></defs><g id="Capa_2" data-name="Capa 2"><g id="Capa_1-2" data-name="Capa 1"><g id="Capa_2-2" data-name="Capa 2"><g id="Capa_1-2-2" data-name="Capa 1-2"><path class="cls-1" d="M562.63,0c1.23.59,2.41,1.28,3.67,1.74,25.58,9.27,34.12,38.74,17.16,60C569.85,78.9,555.86,95.69,542,112.62l-69.38,85c-.77,1-1.64,1.83-1.87,2.15l-78.45-78.41,52.32-42.79C472.41,56,500,33.2,527.87,10.86c5.6-4.46,12.5-7.28,18.8-10.86Z"/><path class="cls-1" d="M296.36,154.76c-10.13,13.24-16.94,26.54-20.53,41.45-.3,1.25-2.87,2.46-4.56,2.79-30.1,5.82-54.56,20.42-71.26,46.53-12.51,19.59-16.29,41.52-16,64.48,0,7.76-.38,15.52-.8,23.28-.51,9.41-4.15,17.62-9.24,25.54-12.58,19.57-8.51,44,9.14,57.75,13.94,10.88,34.21,12.52,48.71,2.28,12.31-8.67,25.84-10.94,40-10.86,18.66.12,37.25.09,55-6.56,36.09-13.33,56.82-39.87,65-76.75,1.24-5.61,3-8.43,8.95-10,21.9-5.81,39.09-18.78,53.18-36.37,18.54-23.16,37.41-46,56.16-69,.64-.77,1.38-1.46,2.76-2.92V447.65H.29v-6.76C.29,362.93.8,285,0,207a51.39,51.39,0,0,1,50.27-52.49H52.5c78.73.51,157.55.17,236.32.17Z"/><path class="cls-1" d="M514.21,485.2c-.87,9.84-.59,19.14-2.71,27.88-5.33,22.18-25.21,36.71-49,36.78-43.39.09-86.76,0-130.14,0h-7.53v41.95h29.52c11.49,0,19.36,7.6,19.36,18.38s-7.87,18.43-19.36,18.43H159.12c-11.15,0-19.52-8-19.45-18.5s8.39-18.26,19.68-18.29h29.52V549.92h-7.2c-43.58,0-87.16.08-130.74,0-25.46,0-45.57-16.4-49.92-41C-.3,501.4.82,493.48.82,485.26Z"/><path class="cls-1" d="M280.09,369.38c-14.27,2.06-28.74,3.28-42.75,6.56-8.07,1.87-15.25,7.38-23.11,10.63-2.51,1.05-6.56,1.11-8.54-.32-1.41-1-1.64-6.13-.4-7.92,13.13-18,15.31-38.69,16-59.92.36-11-.15-22.26,2.1-32.8,6.56-30.68,30.78-49.82,63.21-51.34,28.81-1.35,56.56,17.09,66.94,44.46,10.58,27.89,1.89,60.79-21,78.62-13.32,10.37-28.94,13.63-45.42,13.76h-6.76Z"/><path class="cls-1" d="M313.31,200.11c7.41-26.55,31-37.51,48-53.44L445.6,231C430,247.83,419,271.43,392.17,279.06,380.56,238.32,354.54,211.83,313.31,200.11Z"/></g></g></g></g></svg>