<svg xmlns="http://www.w3.org/2000/svg" viewBox="0 0 556.14 542.31"><defs><style>.cls-1{fill:#fff;}</style></defs><g id="Capa_2" data-name="Capa 2"><g id="Capa_1-2" data-name="Capa 1"><g id="Capa_2-2" data-name="Capa 2"><g id="Capa_1-2-2" data-name="Capa 1-2"><path class="cls-1" d="M171.69,345.08a555.59,555.59,0,0,1,0-147.55H384.33a552.25,552.25,0,0,1,.11,147.55Z"/><path class="cls-1" d="M178.19,159.76c7.94-35.5,18.43-69.64,38-100.18a199.52,199.52,0,0,1,26.7-32.42c9.51-9.58,21.49-15.48,35.7-15.34,13.72.2,24.76,6.58,34.74,15.12C325.7,37.48,335,50.43,343,64.37c17.1,29.65,27.33,61.79,34.85,95.39Z"/><path class="cls-1" d="M377.86,382.83C371,414,362,444,346.56,471.51c-6.95,12.38-15.8,23.65-24.14,35.17A59,59,0,0,1,313,516c-22.84,19.7-47.37,20.12-69.64-.2A167.05,167.05,0,0,1,216.77,484c-20-30.73-30.56-65.29-38.68-101.18Z"/><path class="cls-1" d="M134.56,345.42h-6.19c-37.44,0-74.87-.07-112.3.11-4.34,0-6.38-.88-7.51-5.43C-2.81,293.94-3,247.86,8.92,201.76c.72-2.82,1.27-4.64,5-4.64,39.35.17,78.72.1,118.09.12a22,22,0,0,1,2.54.42A588.29,588.29,0,0,0,134.56,345.42Z"/><path class="cls-1" d="M422.66,345.08C423.88,320,426,295.39,426,270.81c0-24.38-2.16-48.75-3.4-73.45,1.27,0,3-.21,4.64-.21q56.73,0,113.45-.1c3.9,0,5.63.87,6.65,4.92a276.89,276.89,0,0,1-.17,138.89c-.74,2.89-1.39,4.64-5.09,4.64-39.35-.15-78.72-.11-118.07-.12A6,6,0,0,1,422.66,345.08Z"/><path class="cls-1" d="M23,160.08C62.77,76.13,126.63,23.32,216.06,0c-.42,1.19-.43,1.73-.73,2-29.63,28.08-47.1,63.44-59.79,101.45-5.73,17-9.61,34.78-14.16,52.26-.71,2.69-1.18,4.45-4.64,4.45C99.37,160,62,160.08,23,160.08Z"/><path class="cls-1" d="M341.17,542.31c9.75-12.69,20.48-24.9,29.2-38.4,22-34,34.39-72,43.18-111.29,2.24-10.07,2-10.12,12.61-10.12H533.07C493.35,466.43,429.45,519.23,341.17,542.31Z"/><path class="cls-1" d="M341.22.26c88.2,23.06,152.07,75.83,191.7,159.5-2.35.15-3.62.32-4.89.32H421c-3.91,0-5.52-.82-6.42-5.06-8.65-40.86-21.06-80.46-43.87-115.88C361.88,25.55,351.06,13.17,341.22.26Z"/><path class="cls-1" d="M24.16,382.75c1.55-.08,3.09-.23,4.52-.23q53.22,0,106.46-.1c4,0,5.5.9,6.39,5.09,8.65,41.09,21.24,80.83,44.18,116.39,8.72,13.51,19.47,25.69,28.49,37.43C131.58,524.59,54.47,458.37,24.16,382.75Z"/></g></g></g></g></svg>