<svg xmlns="http://www.w3.org/2000/svg" viewBox="0 0 258.42 131.88"><defs><style>.cls-1,.cls-2,.cls-3{fill:#fab30d;}.cls-2{font-size:33.66px;font-family:ChakraPetch-MediumItalic, Chakra Petch;font-weight:500;}.cls-2,.cls-3{font-style:italic;}.cls-3{font-size:74.06px;font-family:ChakraPetch-BoldItalic, Chakra Petch;font-weight:700;}</style></defs><g id="Capa_2" data-name="Capa 2"><g id="Capa_1-2" data-name="Capa 1"><path class="cls-1" d="M0,25.41c.17-.69,14.24-7.88,14.24-7.88l13.12,7.22.11,17.42L13.38,49.39l-.06-16Z"/><path class="cls-1" d="M31,7.87C31.2,7.18,45.26,0,45.26,0L58.38,7.22l.12,17.42L44.41,31.86l-.06-16Z"/><path class="cls-1" d="M0,62c.17-.69,14.24-7.87,14.24-7.87l13.12,7.22.11,17.42L13.38,86l-.06-16Z"/><path class="cls-1" d="M32.15,43.8c.17-.69,14.23-7.87,14.23-7.87L59.5,43.15l.12,17.42-14.1,7.22-.06-16Z"/><path class="cls-1" d="M63.43,25.41c.17-.69,14.24-7.88,14.24-7.88l13.12,7.22.11,17.42L76.81,49.39l-.06-16Z"/><path class="cls-1" d="M63.43,63.37c.17-.69,14.24-7.88,14.24-7.88l13.12,7.22.11,17.42L76.81,87.35l-.06-16Z"/><path class="cls-1" d="M30.34,79.73c.17-.69,14.24-7.88,14.24-7.88L57.7,79.07l.11,17.42-14.09,7.22-.06-16Z"/><text class="cls-2" transform="translate(105.85 33.46)">CREADOR</text><text class="cls-3" transform="translate(97.29 89.96)">WEB</text></g></g></svg>